<?xml version="1.0" encoding="UTF-8"?>
<svg version="1.1" xmlns="http://www.w3.org/2000/svg" width="3626" height="1629">
<path d="M0 0 C0.83917969 0.71800781 1.67835938 1.43601563 2.54296875 2.17578125 C30.04293068 26.17962399 48.6148284 61.49645713 52 98 C52.34010428 103.79784066 52.5015981 109.59976071 52.66601562 115.40478516 C54.05968899 164.28196191 67.75737256 210.33299459 97.375 249.6875 C97.85573975 250.32816406 98.33647949 250.96882813 98.83178711 251.62890625 C107.93079064 263.39661606 118.7200552 273.87388871 129.2097168 284.38671875 C130.4845558 285.66784479 131.75921356 286.94915119 133.03370667 288.23062134 C137.16872081 292.38639797 141.30881209 296.5370971 145.44921875 300.6875 C146.88770811 302.13004621 148.32616727 303.57262254 149.76459694 305.01522827 C156.52326462 311.79288 163.28429694 318.56816183 170.04827279 325.34051609 C177.80365823 333.10567317 185.5506848 340.8790465 193.29073972 348.65948391 C199.31211273 354.71117192 205.34128938 360.7550157 211.37618953 366.79321384 C214.96357361 370.38292906 218.54769329 373.97575513 222.12351036 377.57699585 C261.61690027 417.33660421 305.54013385 446.74587271 363.84960938 447.19116211 C382.92632038 447.16898676 400.36448595 444.71927451 418.95117188 440.56420898 C439.85131611 435.91379682 439.85131611 435.91379682 450 436 C449.93923779 416.49243986 449.86157929 396.98501493 449.76428509 377.47760201 C449.71948668 368.41818538 449.6800361 359.35880666 449.65356445 350.29931641 C449.63045422 342.39500553 449.59691336 334.49081626 449.55129844 326.58660209 C449.52754017 322.40869072 449.50869835 318.23089847 449.50238609 314.0529213 C449.46848625 294.19788206 449.30171615 275.02349622 443.25 255.875 C442.99395996 255.04718018 442.73791992 254.21936035 442.47412109 253.36645508 C439.90400278 245.30055937 436.70894675 237.60383014 433 230 C432.54004639 229.05133057 432.54004639 229.05133057 432.07080078 228.08349609 C426.73701838 217.23620301 420.07840376 207.65598818 412.76171875 198.06640625 C408.19155631 191.99867645 404.63964722 186.13925939 402 179 C401.41025391 177.40671875 401.41025391 177.40671875 400.80859375 175.78125 C394.39817302 155.5895415 397.14709592 134.47672612 406.58618164 115.78540039 C410.36031478 108.83637927 415.34457993 103.45927833 421 98 C421.70640625 97.26265625 422.4128125 96.5253125 423.140625 95.765625 C432.06790673 86.97463765 444.79951436 81.37340637 457 79 C457.91523437 78.81824219 458.83046875 78.63648438 459.7734375 78.44921875 C479.02136463 75.7694226 498.59147489 79.53002805 514.6875 90.6875 C531.79741018 103.94201068 543.5149815 121.41983956 546.6875 143.0625 C548.50253969 165.93200008 542.40596909 185.74419139 527.625 203.25 C504.89848478 230.52181827 494.94020699 266.77666459 494.79467773 301.69946289 C494.78508218 303.16875473 494.77507115 304.6380439 494.76467896 306.10733032 C494.73780541 310.07152982 494.71670163 314.035741 494.69667697 317.99998021 C494.67470825 322.15198055 494.64737316 326.30394558 494.62062073 330.45591736 C494.57084026 338.3073182 494.52584751 346.15873879 494.48259836 354.01017803 C494.43310028 362.95340799 494.37822904 371.89660249 494.32291877 380.83979809 C494.20932375 399.22649909 494.10243636 417.61323361 494 436 C494.86923599 436.06040466 495.73847198 436.12080933 496.63404846 436.18304443 C497.78678757 436.2666925 498.93952667 436.35034058 500.12719727 436.43652344 C501.26455826 436.5175531 502.40191925 436.59858276 503.57374573 436.68206787 C508.77756347 437.1649453 513.82911379 438.17222744 518.9375 439.25 C520.00943604 439.46889893 521.08137207 439.68779785 522.18579102 439.91333008 C528.37595017 441.19148965 534.53359953 442.57837169 540.68334961 444.03735352 C589.22489895 455.49610238 640.7617311 447.19515902 683.55957031 421.4609375 C701.37577382 410.2898481 716.56217093 396.58052246 731.40356445 381.7734375 C732.6152808 380.56800304 733.82717987 379.36275222 735.03924561 378.15766907 C738.98411074 374.23363921 742.92383149 370.30446521 746.86328125 366.375 C748.23059755 365.01173874 749.59794485 363.64850857 750.96532249 362.28530884 C757.39273314 355.87690364 763.81775898 349.46611922 770.23985511 343.05238819 C777.60658435 335.69541824 784.98151118 328.34679671 792.36355239 321.0051918 C798.10096618 315.29811038 803.83051819 309.58321003 809.55443352 303.86259079 C812.95863558 300.46071931 816.36594015 297.06211232 819.78167152 293.67181396 C839.7226557 273.99598067 839.7226557 273.99598067 857 252 C857.97987885 250.60743484 857.97987885 250.60743484 858.97955322 249.18673706 C876.44559788 224.10584849 888.24600906 194.16467746 893 164 C893.17297607 162.98180176 893.34595215 161.96360352 893.52416992 160.91455078 C895.44295023 148.45148515 895.37641989 135.99710122 895.45629883 123.41357422 C895.78695675 79.52691064 908.19799368 40.91479556 939 9 C939.78890625 8.14792969 940.5778125 7.29585937 941.390625 6.41796875 C966.59742369 -20.08255636 1004.14828014 -34.98390515 1040.34375 -36.28515625 C1079.00484674 -37.08691036 1115.69437486 -25.75618607 1145 0 C1145.85078125 0.72960937 1146.7015625 1.45921875 1147.578125 2.2109375 C1174.92458213 26.11811628 1193.44812733 61.2033398 1196.85205078 97.52001953 C1197.85218318 114.28461512 1198.13423019 131.63394589 1194 148 C1193.80132324 148.78987305 1193.60264648 149.57974609 1193.39794922 150.39355469 C1186.98403857 175.04026753 1175.93912154 196.03944251 1159 215 C1158.31164063 215.82113281 1157.62328125 216.64226562 1156.9140625 217.48828125 C1151.86888586 223.44982671 1146.16323663 228.22659391 1140 233 C1139.04996094 233.75410156 1138.09992188 234.50820313 1137.12109375 235.28515625 C1112.97256477 254.0316175 1083.64502376 263.72237334 1053.27734375 265.3828125 C1036.77872959 266.29487169 1021.06708722 268.08663605 1005 272 C1003.83670166 272.27602051 1003.83670166 272.27602051 1002.64990234 272.55761719 C947.65366359 285.9508043 909.32266656 326.50858787 870.84253836 365.02313614 C867.07176005 368.79647818 863.29850631 372.56734367 859.52566528 376.33862305 C853.20509355 382.65738666 846.88660828 388.97823086 840.56933594 395.30029297 C833.28253136 402.59255883 825.99210298 409.88118694 818.69982421 417.16797829 C812.40628296 423.45697486 806.11470064 429.74792619 799.82473862 436.04050255 C796.08163775 439.78515601 792.33787965 443.52914568 788.59234238 447.2713623 C785.07854764 450.78225783 781.56722835 454.29561084 778.05776405 457.81083488 C776.77473765 459.095177 775.49087168 460.37868108 774.20607948 461.66125679 C767.92421747 467.93328347 761.74358188 474.2232448 756 481 C754.77212429 482.3137078 753.54321843 483.62645496 752.3125 484.9375 C731.77557021 508.31254677 719.10271912 536.7959427 711.6875 566.75 C711.44451172 567.7311377 711.20152344 568.71227539 710.95117188 569.72314453 C707.74450817 583.43776358 706.66315138 596.94004431 706.73925781 610.97143555 C706.74994671 613.30088599 706.73930098 615.62955746 706.7265625 617.95898438 C706.72196488 626.06810135 707.1091728 634.02621396 708.01660156 642.08666992 C708.11079376 642.95053062 708.20498596 643.81439133 708.30203247 644.70442963 C708.53136372 646.803319 708.76519951 648.90171542 709 651 C728.78557031 650.91581906 748.57105867 650.82058433 768.35651302 650.71247292 C777.544869 650.662519 786.73321682 650.61607532 795.92163086 650.578125 C803.93760764 650.54500796 811.9535177 650.5050707 819.96942049 650.45720994 C824.20708252 650.43213914 828.44470142 650.41030258 832.68241692 650.39665604 C836.68547132 650.38365681 840.68837624 650.36141814 844.69134712 650.33261681 C846.14677927 650.32367834 847.60223539 650.31788376 849.05769348 650.31578636 C856.78246632 650.30268164 864.35050487 649.97907187 872.01979065 649.09335327 C873.04569287 648.97512724 873.04569287 648.97512724 874.09232038 648.85451281 C900.53808488 645.5275603 922.84660924 632.7942583 942.81567383 615.94067383 C954.5972815 606 954.5972815 606 959 606 C959.22945312 605.19175781 959.45890625 604.38351562 959.6953125 603.55078125 C961.31960706 599.13017121 963.50392535 595.24586864 965.875 591.1875 C966.59876831 589.94432007 966.59876831 589.94432007 967.3371582 588.67602539 C976.90657109 572.49927066 988.33937284 557.85740287 1001 544 C1001.82886719 543.06671875 1002.65773438 542.1334375 1003.51171875 541.171875 C1008.40022773 535.69195375 1013.36453756 530.6962187 1019 526 C1019.92039062 525.19175781 1020.84078125 524.38351562 1021.7890625 523.55078125 C1034.79542381 512.17821886 1048.97811897 502.50645971 1064 494 C1064.62745117 493.63841797 1065.25490234 493.27683594 1065.90136719 492.90429688 C1107.53731091 469.07029375 1165.62602412 452.88496999 1213.41015625 463.77734375 C1229.86544877 468.34716873 1242.17004162 477.82058857 1251.01757812 492.26074219 C1259.84252447 507.88423069 1261.68392979 528.07857719 1258 545.5 C1254.32332903 557.28596394 1247.79786829 567.41559818 1239 576 C1238.34902344 576.69480469 1237.69804688 577.38960937 1237.02734375 578.10546875 C1223.27133419 591.80846864 1204.10709173 594.88827427 1185.5480957 595.59863281 C1150.89581552 597.06378969 1120.910454 612.86492298 1097.3125 637.8125 C1076.7258556 661.40910504 1067.50584132 691.14512771 1067.59936523 722.02587891 C1067.59360592 723.7690528 1067.58651636 725.51222271 1067.57821655 727.25538635 C1067.56323478 730.97490764 1067.55731772 734.69428661 1067.55874443 738.41383743 C1067.560798 744.3083094 1067.54108012 750.20259328 1067.51856995 756.09701538 C1067.47779264 767.54503803 1067.4590376 778.99304517 1067.44239807 790.44112396 C1067.41997048 805.01965055 1067.38628091 819.59813272 1067.33519894 834.17658746 C1067.31540954 840.0234038 1067.30570627 845.87012026 1067.30424678 851.71696877 C1067.30147636 855.36578103 1067.29060332 859.01453893 1067.27773666 862.66332817 C1067.27349525 864.34096581 1067.27257073 866.01861604 1067.27541161 867.69625664 C1067.30519518 887.58093087 1064.76966498 904.37913821 1053 921 C1052.278125 922.03125 1051.55625 923.0625 1050.8125 924.125 C1040.70445185 935.55436163 1024.7959582 944.05243657 1009.56689453 945.18017578 C988.62267049 946.24165417 970.14070677 942.17232789 954 928 C952.98486328 927.12601563 952.98486328 927.12601563 951.94921875 926.234375 C937.75033539 913.11074689 932.66595155 895.76601415 931.82186508 877.0502491 C931.73333387 872.842031 931.75170913 868.63485861 931.77294922 864.42602539 C931.77351506 862.82777412 931.7731934 861.22952233 931.77206421 859.63127136 C931.77149645 855.34299323 931.783156 851.05482973 931.79721212 846.76657796 C931.80981694 842.26630201 931.8108976 837.76602269 931.81326294 833.26573181 C931.81944931 824.76637419 931.83582117 816.26706876 931.85596192 807.76773399 C931.87841002 798.08196714 931.88933664 788.39619763 931.89935279 778.71041119 C931.9201903 758.8069118 931.95531028 738.9034592 932 719 C931.40864258 718.70955811 930.81728516 718.41911621 930.20800781 718.11987305 C927.67289998 716.83409909 925.23057661 715.40653365 922.77319336 713.97924805 C899.81217405 700.73794103 877.56674625 694.71826537 850.90673828 694.68115234 C849.34803767 694.67182783 847.78934194 694.66165553 846.23065186 694.65071106 C842.04567421 694.62368089 837.86072968 694.60834287 833.67568827 694.59528303 C829.2848018 694.57953284 824.89398185 694.55278129 820.50314331 694.5272522 C812.20921528 694.48067305 803.91527443 694.44382873 795.62128341 694.41057932 C786.17006937 694.37220949 776.71892249 694.32283883 767.26776528 694.27259517 C747.84522617 694.16958606 728.42264593 694.0802259 709 694 C708.91505342 694.66134886 708.83010685 695.32269772 708.74258614 696.00408745 C708.35331807 699.02877635 707.96207563 702.05320678 707.57080078 705.07763672 C707.43720657 706.11800583 707.30361237 707.15837494 707.16596985 708.23027039 C706.25708105 715.2412763 705.16232399 722.17396487 703.875 729.125 C695.68429567 776.64968273 706.25962239 825.86013038 733.6875 865.6015625 C742.22522756 877.19496563 752.14267674 887.44197042 762.30541992 897.59594727 C763.71002853 899.00655651 765.11423213 900.41756912 766.51806641 901.82894897 C770.29661597 905.62500577 774.08147574 909.41470706 777.86814666 913.2026608 C780.24222539 915.57816998 782.61487062 917.95510146 784.98702431 920.33253288 C793.28684961 928.65080521 801.59176751 936.96395307 809.90161133 945.2722168 C817.60934215 952.97874645 825.30584656 960.69636244 832.99717063 968.41926342 C839.63497811 975.08333559 846.28058965 981.73955821 852.93217927 988.38987392 C856.88983332 992.3470215 860.84441771 996.30711391 864.79112816 1000.27517891 C868.50627228 1004.00987911 872.23115686 1007.73459707 875.96329498 1011.45231247 C877.31945855 1012.8064085 878.67231874 1014.16382376 880.02131844 1015.52505684 C891.56959959 1027.17112819 903.99964456 1037.71331906 918.375 1045.75 C919.55642578 1046.41938599 919.55642578 1046.41938599 920.76171875 1047.10229492 C947.89049033 1062.19456707 977.39765359 1070.22006844 1008.4375 1070.125 C1009.69626953 1070.12886719 1010.95503906 1070.13273437 1012.25195312 1070.13671875 C1018.39220923 1070.13031264 1024.38725894 1069.93268538 1030.4855957 1069.23583984 C1059.79651023 1066.48660755 1088.90211236 1071.3125863 1115 1085 C1115.6492041 1085.33370605 1116.2984082 1085.66741211 1116.96728516 1086.01123047 C1127.20071657 1091.31461544 1136.24674773 1097.51205906 1145 1105 C1145.53641113 1105.45665039 1146.07282227 1105.91330078 1146.62548828 1106.38378906 C1153.88566926 1112.62963109 1160.21854568 1119.34237708 1166 1127 C1166.60690674 1127.79446533 1166.60690674 1127.79446533 1167.22607422 1128.60498047 C1179.16573103 1144.32713524 1187.59983002 1161.46675233 1192.75 1180.5625 C1192.94875732 1181.29307617 1193.14751465 1182.02365234 1193.35229492 1182.77636719 C1196.38199935 1194.62506979 1197.36723763 1206.48735428 1197.3125 1218.6875 C1197.30758545 1219.99678467 1197.3026709 1221.30606934 1197.29760742 1222.6550293 C1196.80673979 1263.50780273 1179.54943061 1299.21518435 1151.6875 1328.625 C1142.54739214 1337.41608226 1132.030803 1344.80950317 1121 1351 C1120.41057617 1351.3309668 1119.82115234 1351.66193359 1119.21386719 1352.00292969 C1083.67442509 1371.64265311 1041.533069 1375.22287551 1002.65527344 1364.18212891 C978.55622127 1356.82888298 958.12644441 1343.24601711 940 1326 C938.95585937 1325.05253906 938.95585937 1325.05253906 937.890625 1324.0859375 C922.18537098 1309.35414964 911.00859948 1289.16546138 904 1269 C903.77473633 1268.35272949 903.54947266 1267.70545898 903.31738281 1267.03857422 C898.31508359 1252.34209027 896.39156592 1237.3275611 895.33984375 1221.88769531 C891.78960586 1170.03808472 870.94962648 1129.63271587 834.61083984 1093.3203125 C832.95859828 1091.66207687 831.30676415 1090.0034352 829.65530396 1088.34442139 C825.19287597 1083.86441686 820.72406652 1079.39083214 816.25348234 1074.9189682 C812.98298396 1071.64680284 809.7145614 1068.37257004 806.44632889 1065.09814179 C797.64358673 1056.27882486 788.83632424 1047.46404839 780.02457683 1038.6537292 C779.52581706 1038.15504935 779.02705729 1037.65636949 778.51318359 1037.14257812 C778.01380325 1036.64327955 777.51442291 1036.14398097 776.99990983 1035.62955213 C768.91281059 1027.54326526 760.83573105 1019.44705191 752.763153 1011.3462708 C744.44334567 1002.99762991 736.11599475 994.65657793 727.78089678 986.32320213 C723.11391418 981.65687974 718.45016842 976.98740644 713.79417038 972.31011963 C709.41173899 967.90819607 705.01963407 963.51615139 700.62022018 959.1312027 C699.0169133 957.52997133 697.41694364 955.92538951 695.82077789 954.31703949 C683.88461071 942.29575549 671.55222599 931.70852224 656.75 923.3125 C655.56349854 922.63634644 655.56349854 922.63634644 654.35302734 921.9465332 C612.86072115 898.83009418 565.37613591 895.21995846 519.57275391 905.55371094 C513.96972232 906.77245992 508.35992493 907.44919987 502.66503906 908.06030273 C501.83070343 908.15134026 500.9963678 908.24237778 500.13674927 908.33617401 C498.09134704 908.55911498 496.04569758 908.77978569 494 909 C494.06080861 928.08186901 494.13849868 947.16360032 494.23571491 966.24531937 C494.28048073 975.10738172 494.31993839 983.9694056 494.34643555 992.83154297 C494.36957263 1000.56520931 494.40314215 1008.29875191 494.44870156 1016.03231978 C494.47242447 1020.11863327 494.491289 1024.20482584 494.49761391 1028.29120636 C494.53344573 1048.77995224 494.74059783 1068.94812062 500.75 1088.75 C501.00676514 1089.6164917 501.26353027 1090.4829834 501.52807617 1091.37573242 C507.3580389 1110.41910843 516.8353907 1127.30576313 529 1143 C540.90570539 1158.85452973 548.73985765 1176.78601748 547 1197 C546.91878906 1198.04027344 546.83757813 1199.08054687 546.75390625 1200.15234375 C545.15731339 1214.78503503 539.91898346 1227.31245192 531 1239 C530.45730469 1239.72574219 529.91460938 1240.45148438 529.35546875 1241.19921875 C517.09888849 1256.3782926 498.03747709 1264.76155085 479 1267 C459.57714412 1268.22571421 441.26867375 1263.24017648 426 1251 C425.16855469 1250.34386719 424.33710937 1249.68773437 423.48046875 1249.01171875 C409.92669004 1237.62321344 400.17252982 1220.64956043 398 1203 C396.24354377 1178.86181699 402.06747171 1159.03370412 417.56738281 1140.43139648 C422.38011341 1134.64712828 426.33734048 1128.58050148 430 1122 C430.3295166 1121.41202637 430.6590332 1120.82405273 430.99853516 1120.21826172 C435.33085702 1112.38030208 438.82202588 1104.33766628 441.75 1095.875 C442.01949463 1095.12025391 442.28898926 1094.36550781 442.56665039 1093.58789062 C449.44764494 1072.68424718 449.61286013 1051.41134577 449.60750484 1029.67225313 C449.61067925 1025.41484803 449.63638921 1021.15757326 449.65948486 1016.90023804 C449.69970746 1008.87571403 449.72030518 1000.85127056 449.73345876 992.82666147 C449.74944461 983.6751053 449.78790742 974.52368401 449.82805204 965.37220693 C449.90998799 946.58151421 449.96436765 927.79083482 450 909 C448.76126129 908.86550446 447.52252258 908.73100891 446.24624634 908.59243774 C444.60637641 908.41277116 442.96651479 908.23302881 441.32666016 908.05322266 C440.51193741 907.96496719 439.69721466 907.87671173 438.85780334 907.78578186 C434.06392845 907.25839036 429.32653948 906.60442969 424.578125 905.75634766 C376.44801064 897.42531501 323.98921983 910.16344813 283.92016602 937.70288086 C268.33878622 948.71908485 254.84800766 961.9990368 241.38354492 975.43945312 C239.82700794 976.98971316 238.27028587 978.53978737 236.71339417 980.08969116 C231.63220279 985.14998936 226.556211 990.21548706 221.48046875 995.28125 C219.72311349 997.03455244 217.96572614 998.78782272 216.20830727 1000.5410614 C207.94948982 1008.78086102 199.69306391 1017.02304778 191.43957347 1025.26818323 C190.4931658 1026.21362244 189.54675524 1027.15905875 188.6003418 1028.10449219 C188.13090848 1028.57344176 187.66147517 1029.04239133 187.17781661 1029.5255515 C180.05490672 1036.64068625 172.92500277 1043.74875723 165.79077148 1050.85253906 C157.47344955 1059.13447923 149.16323253 1067.42346771 140.86171991 1075.72125578 C136.47942363 1080.10121493 132.0939658 1084.47788711 127.70018578 1088.84632874 C123.56179004 1092.96123975 119.43326578 1097.08581601 115.31169701 1101.21757889 C113.80968394 1102.72008246 112.30433304 1104.21925909 110.79515457 1105.71456528 C98.40839789 1117.99393608 86.68602768 1131.09169912 78.1875 1146.4375 C77.74575439 1147.21988037 77.30400879 1148.00226074 76.84887695 1148.80834961 C62.04033772 1175.52804691 55.30063648 1203.50450475 52.08642578 1233.73999023 C47.86577323 1272.35515605 29.74098343 1309.52509172 -0.375 1334.6875 C-34.22142403 1361.28454811 -73.27876373 1374.02238916 -116.48828125 1369.5 C-149.52535042 1365.31929525 -178.84760162 1350.86527997 -203 1328 C-203.88429687 1327.18015625 -204.76859375 1326.3603125 -205.6796875 1325.515625 C-229.19649254 1302.99811763 -243.99919251 1271.19254397 -248 1239 C-248.11085937 1238.14921875 -248.22171875 1237.2984375 -248.3359375 1236.421875 C-252.90931546 1195.13786856 -240.29694325 1155.81898489 -214.75 1123.5 C-191.47532389 1095.80353742 -161.26607835 1078.46339393 -126 1071 C-124.86820312 1070.7525 -123.73640625 1070.505 -122.5703125 1070.25 C-107.61186506 1067.56419398 -91.20079333 1067.93698073 -76.1875 1070 C-56.72644068 1072.62518449 -36.20072739 1072.19850876 -17 1068 C-16.08702148 1067.80132324 -15.17404297 1067.60264648 -14.23339844 1067.39794922 C-0.52690596 1064.31433488 12.32292544 1060.05193967 25 1054 C25.72380859 1053.65598145 26.44761719 1053.31196289 27.19335938 1052.95751953 C41.55531146 1046.01288761 55.02298479 1037.22208813 66.62890625 1026.23046875 C68.53103787 1024.44114889 70.4615891 1022.74745855 72.44630432 1021.05340576 C77.94389081 1016.24896832 83.07186698 1011.07620437 88.23022461 1005.91503906 C89.33974341 1004.80851827 90.44946494 1003.70220073 91.55937195 1002.59606934 C94.553564 999.61065581 97.5445581 996.62205868 100.53468394 993.63257313 C102.40833749 991.75963354 104.28270269 989.88740918 106.15732002 988.01543427 C112.71246805 981.46951909 119.26504688 974.92104486 125.81518555 968.37011719 C131.89654279 962.2881596 137.98345229 956.21179869 144.0730018 950.1380446 C149.32186749 944.90230347 154.56682049 939.66266409 159.80880934 934.42003798 C162.93042988 931.29816392 166.05354264 928.1778216 169.18061638 925.061409 C172.12442923 922.1273604 175.06329139 919.18843776 177.99861336 916.24589539 C179.06867156 915.17480164 180.14039518 914.10536832 181.21401978 913.03784943 C187.93851018 906.34909169 194.12803055 899.45032983 200 892 C200.49434005 891.38610538 200.9886801 890.77221077 201.49800014 890.13971329 C207.66429917 882.47157471 213.12259816 874.55739815 218 866 C218.38655762 865.33323242 218.77311523 864.66646484 219.17138672 863.97949219 C236.09343901 834.51189618 244.4667282 801.67988663 244.3125 767.8125 C244.31026428 766.5930217 244.31026428 766.5930217 244.3079834 765.34890747 C244.26731668 752.99093057 243.58415412 741.11552504 241 729 C240.46583342 726.41869783 239.93434782 723.83690104 239.40722656 721.25415039 C239.07163803 719.6357824 238.72370043 718.01987991 238.35839844 716.40795898 C237.26410947 711.34823222 236.75621504 706.34153964 236.44580078 701.17895508 C236.40201797 700.48670082 236.35823517 699.79444656 236.31312561 699.0812149 C236.20635438 697.38762596 236.10284441 695.69383194 236 694 C214.92784253 694.06073685 193.85580629 694.13837802 172.78378487 694.23571491 C162.99795743 694.28053115 153.21216525 694.31997784 143.42626953 694.34643555 C134.88911134 694.3695311 126.35206601 694.40305623 117.81499755 694.44870156 C113.30173927 694.47247919 108.78859169 694.49130855 104.27527237 694.49761391 C100.0119772 694.50373565 95.74896472 694.52398502 91.48577499 694.55427551 C89.93562547 694.56294383 88.38543883 694.56680215 86.83526611 694.56500816 C58.69516496 694.5427594 29.58875295 701.95697191 8.87109375 722.06640625 C7.59162869 723.38722775 6.31296997 724.70883087 5.03515625 726.03125 C-10.2743948 740.84125716 -29.98496528 747.4011701 -50.95703125 747.21484375 C-72.89049465 746.36372598 -91.02428773 735.93081496 -105.6875 720.1875 C-119.74089277 703.38956229 -123.40049097 683.31641143 -122 662 C-119.49993017 641.65149352 -107.88510115 624.52667698 -92 612 C-88.77518123 609.75997557 -85.47473433 607.82516673 -82 606 C-81.14792969 605.54753906 -80.29585937 605.09507812 -79.41796875 604.62890625 C-62.46081892 596.26205487 -41.88176799 595.22515879 -23.97802734 601.26367188 C-11.66518438 605.84717402 -1.29054338 612.41982524 7.8125 621.9375 C27.34797673 641.9036185 56.24045908 649.78433078 83.39701843 650.15821838 C86.24342488 650.18215886 89.0897981 650.19423866 91.9362793 650.20532227 C93.51423894 650.21492132 95.09219612 650.22493252 96.67015076 650.23532104 C100.92141401 650.26215687 105.17268812 650.28328067 109.4239881 650.30332303 C113.87893595 650.32531548 118.33385116 650.35263878 122.78877258 650.37937927 C131.21030534 650.42912808 139.63185639 650.47413236 148.05342466 650.51740164 C157.64723101 650.56692706 167.24100457 650.62178802 176.83477914 650.67708123 C196.55648883 650.79062753 216.27822988 650.89752524 236 651 C235.99275406 649.74311874 235.98550812 648.48623749 235.9780426 647.19126892 C235.95810532 643.73294651 236.25887021 640.48343653 236.83984375 637.06640625 C237.01580078 636.00486328 237.19175781 634.94332031 237.37304688 633.84960938 C237.55931641 632.76486328 237.74558594 631.68011719 237.9375 630.5625 C246.24238213 581.34947055 237.15754451 532.21811351 208.40283203 490.96826172 C202.8939701 483.23898137 196.97772105 475.91967886 190.52406311 468.95892334 C190.00897188 468.40257761 189.49388065 467.84623188 188.9631806 467.27302718 C182.8100807 460.66872806 176.43585438 454.28772203 170.05249023 447.90722656 C168.69893126 446.55066646 167.34557427 445.1939048 165.99240112 443.83695984 C162.35645974 440.19227695 158.71736961 436.55075459 155.07737613 432.91011906 C152.7965243 430.62855176 150.51638794 428.34627192 148.23649788 426.06374359 C140.26410374 418.08213281 132.28916661 410.10307331 124.31176758 402.12646484 C116.90333974 394.7186387 109.50052051 387.30524025 102.10028118 379.88923478 C95.71794353 373.49378974 89.33172389 367.10223851 82.94251019 360.71366286 C79.13883728 356.91024374 75.33670044 353.10532096 71.53848076 349.29645538 C67.96825296 345.71649101 64.39318129 342.1414336 60.81446457 338.56995583 C59.50954438 337.26607418 58.20629725 335.96051542 56.90494347 334.65307426 C49.58221361 327.29833783 42.18483539 320.40240316 34 314 C32.90380927 313.10816857 31.80856381 312.21517218 30.71484375 311.3203125 C-5.25714978 282.88675362 -50.81665105 266.96633392 -96.53466797 265.70996094 C-138.68167484 264.50238985 -174.33031039 250.18001897 -205 221 C-205.69609375 220.36835938 -206.3921875 219.73671875 -207.109375 219.0859375 C-234.1704384 193.70221274 -247.84840916 155.14202075 -249.1875 118.71875 C-250.07015517 79.14561413 -236.13595751 40.49235319 -208.703125 11.80078125 C-207.81109375 10.87652344 -206.9190625 9.95226562 -206 9 C-205.21109375 8.14792969 -204.4221875 7.29585937 -203.609375 6.41796875 C-183.1565993 -15.08453551 -154.75124333 -28.17372941 -126 -34 C-124.17855469 -34.36931641 -124.17855469 -34.36931641 -122.3203125 -34.74609375 C-78.78764095 -41.90282547 -33.07226386 -29.06038737 0 0 Z M342 534 C341.15050781 534.79792969 340.30101562 535.59585938 339.42578125 536.41796875 C332.53173174 543.05227385 326.65762196 550.30917015 321 558 C320.5771875 558.57314941 320.154375 559.14629883 319.71875 559.73681641 C291.29240458 598.85635348 280.7543676 648.95846112 288.02734375 696.43359375 C292.58980802 723.64324363 302.56136484 750.67476786 319 773 C320.15435547 774.57974609 320.15435547 774.57974609 321.33203125 776.19140625 C327.07906886 783.91970762 333.35995393 791.03276325 340 798 C340.76570312 798.83015625 341.53140625 799.6603125 342.3203125 800.515625 C373.31068955 833.08178393 420.39922986 851.79250613 464.83203125 853.28125 C516.36356595 854.2944411 562.92973841 836.52794678 600.9375 801.8125 C601.69885254 801.11846069 601.69885254 801.11846069 602.47558594 800.41040039 C632.70466329 772.17842437 650.94840873 732.45576937 657 692 C657.1023999 691.3208252 657.2047998 690.64165039 657.31030273 689.94189453 C663.26775357 644.36980435 651.18193395 594.94225475 623.4296875 558.1328125 C590.68296736 515.90954955 547.01389137 488.81234887 493.62695312 481.68310547 C437.34227699 475.3243476 382.50922683 494.88164791 342 534 Z " fill="#0599B1" transform="translate(401,174)"/>
<path d="M0 0 C2.02907422 1.84271156 4.02289304 3.71488662 6.015625 5.59765625 C8.1845136 7.63934687 10.39232995 9.57067311 12.67578125 11.48046875 C56.8839083 50.13983912 81.87878509 112.56937081 86.41479492 169.87353516 C90.30283045 231.95776292 71.88803816 294.1983214 31.61328125 342.04296875 C31.18466797 342.56036621 30.75605469 343.07776367 30.31445312 343.61083984 C19.79162143 356.30336528 8.64450294 367.8932989 -4.38671875 378.04296875 C-5.32257812 378.80738281 -6.2584375 379.57179688 -7.22265625 380.359375 C-21.02307403 391.41035222 -36.37275529 400.67109351 -52.39892578 408.11914062 C-53.75772978 408.7506457 -55.11273795 409.39036595 -56.46435547 410.03710938 C-80.26755521 421.41391857 -106.13209367 428.42663299 -132.38671875 431.04296875 C-133.44761719 431.15382813 -134.50851562 431.2646875 -135.6015625 431.37890625 C-198.52159104 436.91527024 -260.94529409 418.285411 -310.38671875 379.04296875 C-311.3509375 378.28371094 -312.31515625 377.52445313 -313.30859375 376.7421875 C-328.02759323 364.73163335 -342.05359306 351.09474346 -353.20410156 335.67431641 C-354.40802392 334.01357958 -355.64089025 332.37762109 -356.87890625 330.7421875 C-395.86942019 278.55511758 -409.40368419 212.8996189 -400.609375 149.015625 C-396.46036662 121.93825166 -387.24823943 96.16213152 -374.38671875 72.04296875 C-374.04560059 71.39408691 -373.70448242 70.74520508 -373.35302734 70.07666016 C-358.2161365 41.44558717 -336.11541632 14.81594929 -310.38671875 -4.95703125 C-309.84208984 -5.37807129 -309.29746094 -5.79911133 -308.73632812 -6.23291016 C-298.74575573 -13.91085005 -288.28867173 -20.64890759 -277.38671875 -26.95703125 C-276.70947754 -27.35132324 -276.03223633 -27.74561523 -275.33447266 -28.15185547 C-192.62175972 -75.72637395 -86.63268022 -64.82962541 0 0 Z M-243.38671875 117.04296875 C-263.92057273 141.89532986 -270.14559591 170.28871329 -268.38671875 202.04296875 C-265.86235646 226.69287527 -252.77292132 248.94792268 -235.38671875 266.04296875 C-234.56429687 266.86410156 -233.741875 267.68523437 -232.89453125 268.53125 C-210.96665976 289.34475425 -182.43803258 297.68160016 -152.75 297.3203125 C-128.18625208 296.57707701 -104.86387312 287.11138517 -86.38671875 271.04296875 C-85.54367187 270.33269531 -84.700625 269.62242187 -83.83203125 268.890625 C-62.36026555 250.32309508 -49.74149224 223.09675173 -47.38671875 195.04296875 C-45.61321825 166.26247822 -55.08402237 139.16006245 -73.38671875 117.04296875 C-74.07121094 116.19476562 -74.75570312 115.3465625 -75.4609375 114.47265625 C-93.20011054 93.55289211 -120.24357704 80.61722143 -147.38671875 78.04296875 C-184.52206025 75.65939799 -218.54553753 88.98574175 -243.38671875 117.04296875 Z " fill="#022F3E" transform="translate(2332.38671875,692.95703125)"/>
<path d="M0 0 C6.3170873 5.59368263 12.17868128 11.68795267 18.109375 17.68359375 C19.84727708 19.42642808 21.5859999 21.16844434 23.32550049 22.90968323 C26.95567822 26.54747099 30.57932661 30.19158907 34.19775391 33.84106445 C38.82127204 38.50419907 43.45553142 43.15646358 48.09405136 47.80467129 C52.54018328 52.26080525 56.98138016 56.72184349 61.421875 61.18359375 C62.68103352 62.44784589 62.68103352 62.44784589 63.96562958 63.73763847 C66.35574812 66.13941955 68.74239253 68.54459718 71.12792969 70.95092773 C71.82418961 71.64987656 72.52044952 72.34882538 73.23780823 73.06895447 C77.1086186 76.98182889 80.79224848 81.0022581 84.39055443 85.16652012 C86.5958401 87.67878085 88.92630071 90.04597265 91.29272461 92.40625 C91.77167175 92.88534317 92.2506189 93.36443634 92.74407959 93.85804749 C94.29447055 95.40775355 95.84834926 96.95390825 97.40234375 98.5 C98.49115104 99.58693803 99.57973466 100.67410015 100.66810608 101.76147461 C103.50824889 104.59783223 106.3513836 107.43117164 109.19519043 110.26385498 C112.10657891 113.16494253 115.01507467 116.06892713 117.92382812 118.97265625 C123.6130867 124.65124818 129.30551499 130.32664916 135 136 C141.92084365 130.32992619 148.15632627 123.98900033 154.46875 117.6640625 C155.67494386 116.45854362 156.88128603 115.2531731 158.08776855 114.04794312 C160.60750325 111.52967679 163.12543594 109.00962628 165.64208984 106.48828125 C168.84943875 103.27524177 172.06124879 100.06670529 175.27443695 96.85950661 C177.76427077 94.37330694 180.25169251 91.88470492 182.73841858 89.39539719 C183.92089186 88.2122622 185.10409349 87.02985465 186.28807068 85.84822464 C193.52324569 78.68610395 193.52324569 78.68610395 200.35839844 71.14819336 C206.10315233 64.43105642 212.50374037 58.28839953 218.734375 52.02734375 C219.44237495 51.31526827 220.15037491 50.60319279 220.87982941 49.86953926 C224.62428691 46.10432614 228.37193856 42.34232489 232.12207031 38.58276367 C235.97118556 34.7225749 239.80847265 30.8508458 243.6432457 26.97641659 C246.61702354 23.97637819 249.59976385 20.98537016 252.58490753 17.99664497 C254.00270105 16.57401409 255.41714638 15.14803746 256.8279953 13.71851921 C273.01837866 -2.67280691 290.23632062 -14.1834107 314 -14.375 C330.84506144 -14.22369238 344.10022215 -8.83167719 357 2 C358.010625 2.7425 359.02125 3.485 360.0625 4.25 C371.97067019 14.37689265 379.41082466 31.51882725 380.87109375 46.8671875 C380.93490234 47.92292969 380.93490234 47.92292969 381 49 C381.07927734 50.30324219 381.07927734 50.30324219 381.16015625 51.6328125 C381.72981204 70.20854479 376.03411394 85.79972799 363.7254467 99.53890038 C361.25474432 102.10346382 358.74266136 104.61779175 356.20678711 107.11791992 C355.25080459 108.07141083 354.29549753 109.02557936 353.34080505 109.98036194 C351.30455461 112.01393368 349.26369985 114.04271828 347.21891594 116.06770897 C343.97854069 119.27672343 340.74888654 122.4963918 337.520401 125.71736145 C332.41012276 130.81322115 327.29267 135.90180621 322.17214638 140.98736888 C313.00514891 150.09223569 303.85041484 159.20942526 294.69848639 168.32943612 C291.49377952 171.52239215 288.28591788 174.71213359 285.07528102 177.89912641 C283.07291356 179.88756334 281.07261362 181.87807129 279.07274818 183.86902428 C277.71736549 185.21700882 276.35937625 186.56237095 275.00128174 187.90762329 C270.67286894 192.22045759 266.49196788 196.59092515 262.52908325 201.24339771 C259.82574047 204.34898278 256.89532911 207.22754359 253.97265625 210.125 C253.33887558 210.75736572 252.70509491 211.38973145 252.05210876 212.04125977 C250.05794022 214.02989986 248.06029647 216.01500527 246.0625 218 C244.69703255 219.36044318 243.33179614 220.72111831 241.96679688 222.08203125 C238.64719114 225.3907031 235.32446727 228.69621322 232 232 C237.41467908 238.59097118 243.43015882 244.5430429 249.47802734 250.54394531 C250.63857104 251.69928804 251.7988681 252.85487855 252.9589386 254.01069641 C255.44735109 256.48920979 257.93722127 258.96624606 260.42817307 261.44220734 C264.3746706 265.36551814 268.31618213 269.29381248 272.25674438 273.2230835 C283.45948661 284.39249569 294.66635346 295.55774541 305.88378906 306.71240234 C312.08693584 312.8809165 318.28462095 319.0548644 324.47639239 325.23479724 C328.38370867 329.13406127 332.29747242 333.02669355 336.21624351 336.91444349 C338.66340006 339.34547517 341.10411544 341.7828967 343.54312706 344.2220974 C344.66591339 345.34248328 345.7912397 346.46033113 346.91943169 347.57527351 C363.27665954 363.7485403 374.16931923 380.49235956 374.375 404.0625 C374.19327018 421.25988013 368.49627304 437.41417941 356.265625 449.83203125 C355.51796875 450.54746094 354.7703125 451.26289062 354 452 C353.31421875 452.70511719 352.6284375 453.41023438 351.921875 454.13671875 C339.61261669 466.10405322 322.33043706 471.40508315 305.44140625 471.21484375 C281.94635409 469.74806978 266.30427538 458.80139779 250.18481445 442.52539062 C248.94247378 441.28220182 247.69946836 440.03967702 246.45585632 438.79776001 C243.1110235 435.4537813 239.77546511 432.10069243 236.44160104 428.74578285 C232.94502234 425.23033922 229.4398389 421.72349578 225.93559265 418.21569824 C219.31420945 411.58502326 212.70050523 404.94674432 206.08958358 398.3056407 C198.5573568 390.7397803 191.01652077 383.18252541 183.47498 375.62595081 C167.97377934 360.09346613 152.4833225 344.55030499 137 329 C133.14537313 330.58488721 130.72552546 333.03835648 127.80955505 335.97685242 C127.29937098 336.4881499 126.78918691 336.99944739 126.26354271 337.52623874 C124.55559225 339.24025974 122.85490643 340.96131177 121.15405273 342.68237305 C119.93040719 343.91313175 118.70628949 345.14342118 117.48173523 346.37327576 C114.84459715 349.02351821 112.21050142 351.67673548 109.57861137 354.33218956 C105.41039685 358.53701454 101.23347621 362.73311702 97.0549469 366.9276886 C85.17356175 378.85735086 73.30385341 390.7985903 61.44311523 402.7487793 C54.89300065 409.34813843 48.33560214 415.94017397 41.77044445 422.52456886 C37.62219316 426.68584704 33.48309055 430.85594611 29.35068786 435.0329603 C26.76609147 437.64116869 24.1730237 440.24082813 21.57759285 442.83825111 C20.38374777 444.03635881 19.1933065 445.2378704 18.00672913 446.44317627 C9.51939998 455.05913506 0.95247564 462.57939198 -10.625 466.8125 C-12.12933594 467.37904297 -12.12933594 467.37904297 -13.6640625 467.95703125 C-32.35536009 473.80079759 -52.30847669 472.64448626 -69.8125 463.75 C-86.22728823 454.29540384 -98.47961861 440.61010218 -104 422.3125 C-107.60513183 404.82878876 -105.20756394 386.74136368 -96.17352295 371.29681396 C-89.51875899 361.20282403 -79.86593658 352.73079677 -71.30956268 344.23439789 C-69.43078553 342.36865738 -67.55539012 340.4995715 -65.6807251 338.62969971 C-61.70666917 334.66693073 -57.728641 330.70816482 -53.75 326.75 C-49.11824257 322.141988 -44.48820702 317.53227135 -39.86237335 312.91831207 C-38.02829847 311.09064501 -36.19120595 309.26605057 -34.35394287 307.44158936 C-29.36821847 302.47758709 -24.48234079 297.49661135 -19.91384888 292.14093018 C-15.13058362 286.79012268 -9.93197167 281.81219887 -4.84765625 276.75 C-3.57948736 275.48369957 -2.31154158 274.21717567 -1.04380798 272.95043945 C2.26980711 269.64061579 5.58641572 266.3338081 8.90368652 263.02764893 C12.29765305 259.64396961 15.6887388 256.25740585 19.08007812 252.87109375 C25.7172578 246.24459178 32.35760795 239.62127682 39 233 C37.41988209 229.1201793 34.78269158 226.51864353 31.8467865 223.63319397 C31.31648238 223.10400327 30.78617827 222.57481256 30.23980433 222.02958578 C28.46135443 220.25720839 26.67586935 218.49209103 24.89038086 216.72680664 C23.61360676 215.45714556 22.3373019 214.18701246 21.06143188 212.91644287 C18.31133654 210.17945448 15.55826541 207.4455069 12.80296135 204.71376228 C8.43795975 200.38537828 4.08168617 196.04828202 -0.27305603 191.70957947 C-12.65855407 179.37235062 -25.0555952 167.04676067 -37.46166992 154.73022461 C-44.3123076 147.92887637 -51.15558676 141.12020796 -57.99122709 134.30378622 C-62.30915991 129.998862 -66.63590899 125.7030713 -70.96961701 121.41403115 C-73.67955554 118.72775158 -76.38090108 116.03295345 -79.08002853 113.33581543 C-80.3224424 112.09765428 -81.56824747 110.86288395 -82.81788826 109.63201714 C-99.23016971 93.45657662 -110.05553058 76.78796329 -110.3125 53.125 C-110.22118957 35.94289556 -104.54189423 20.86993645 -93 8 C-92.32195313 7.24074219 -91.64390625 6.48148438 -90.9453125 5.69921875 C-66.95215746 -19.70278703 -27.22933532 -21.52537417 0 0 Z " fill="#DB3500" transform="translate(3159,648)"/>
<path d="M0 0 C9.22811745 8.62791469 17.95866142 17.36293916 25.6875 27.375 C26.31325928 28.1781665 26.31325928 28.1781665 26.95166016 28.99755859 C55.84124022 66.30033241 75.88069754 113.79316235 75.82794189 161.50717163 C75.83239858 162.79973214 75.83239858 162.79973214 75.8369453 164.11840498 C75.84554341 166.97526843 75.8471329 169.83208954 75.84863281 172.68896484 C75.85326713 174.74976184 75.85829261 176.81055798 75.86367798 178.87135315 C75.87674104 184.44783483 75.88323447 190.02430451 75.88768864 195.60079908 C75.89062801 199.08950554 75.89473432 202.57820878 75.89919281 206.0669136 C75.91284896 216.9965734 75.92252596 227.92622576 75.9263947 238.85589349 C75.93087707 251.44721331 75.94844127 264.03842466 75.9773953 276.62971151 C75.99903868 286.3820392 76.00910033 296.13433643 76.01043582 305.88668787 C76.01148153 311.70301853 76.01734013 317.51924696 76.03525543 323.33555222 C76.05178305 328.80706799 76.05386885 334.27840516 76.04511642 339.74993706 C76.04434868 341.75093122 76.04865387 343.75193518 76.05857468 345.75290489 C76.15091403 365.54713733 73.02163138 382.55173457 58.87255859 397.31494141 C45.39623611 410.82794663 29.49529814 417.57091748 10.4375 417.8125 C-9.33120002 417.66881684 -26.61970819 411.25731615 -40.72265625 397.1640625 C-56.10559648 380.59781918 -58.77600248 361.69829214 -58.69726562 340.03149414 C-58.70137964 338.12275368 -58.70684539 336.21401573 -58.71354675 334.30528259 C-58.72519969 330.22176708 -58.72778204 326.13838646 -58.72319031 322.05485725 C-58.71633288 315.58479653 -58.73233 309.11491062 -58.75158691 302.6448822 C-58.78931198 288.90909745 -58.80222203 275.1733286 -58.8125 261.4375 C-58.82359878 246.6074215 -58.83908634 231.77742473 -58.88321257 216.94740194 C-58.90146459 210.52880474 -58.90549886 204.1104104 -58.89827728 197.69179356 C-58.89674525 193.68455033 -58.90760271 189.67740678 -58.92165565 185.67019081 C-58.92562582 183.82688017 -58.92458954 181.98355006 -58.91788292 180.14024734 C-58.81308755 148.91423128 -69.18531225 123.73701473 -91 101.3125 C-112.46782261 80.05250744 -141.39903228 69.0829159 -171.41674805 69.06030273 C-198.30130968 69.43232361 -222.08531363 79.73888445 -241.3125 98.375 C-241.91191406 98.9009375 -242.51132813 99.426875 -243.12890625 99.96875 C-259.93637968 115.25536157 -270.21449481 141.2778216 -271.42837667 163.49593186 C-271.61221897 169.31472163 -271.58169394 175.13531398 -271.56787109 180.95629883 C-271.57062634 182.90267584 -271.57430947 184.84905173 -271.57884216 186.79542542 C-271.58690912 190.96350947 -271.58913402 195.13154004 -271.58689499 199.29963112 C-271.58404331 205.90428101 -271.59848281 212.50882554 -271.61587524 219.1134491 C-271.66272575 237.88657055 -271.68683455 256.65968394 -271.69335938 275.43286133 C-271.69712144 285.81920063 -271.71523928 296.20541965 -271.74845374 306.59170741 C-271.76855394 313.14303301 -271.77109445 319.694046 -271.76017356 326.24538958 C-271.75754812 330.33793551 -271.77165881 334.43030304 -271.79025459 338.52280235 C-271.79553195 340.40439068 -271.79415723 342.28601278 -271.78521919 344.16758728 C-271.69191802 365.55181753 -275.97707068 384.02422132 -291.48828125 399.71484375 C-306.10149651 413.47915854 -323.43844209 418.2637702 -343.1171875 417.71875 C-361.35762731 416.78777604 -377.9841252 408.14132708 -390.5234375 395.0703125 C-404.24388898 379.03683472 -406.77052049 361.74995914 -406.70068359 341.4074707 C-406.70475549 339.40687779 -406.71010083 337.40628714 -406.71661377 335.40570068 C-406.73023108 329.99782374 -406.72500875 324.59011953 -406.71547651 319.18223977 C-406.7078372 313.4911329 -406.71493859 307.80004 -406.71963501 302.1089325 C-406.72508595 292.54028701 -406.71792435 282.97171108 -406.70361328 273.40307617 C-406.68734882 262.402657 -406.6925327 251.40240522 -406.7090925 240.40199023 C-406.72279918 230.91097581 -406.72458078 221.42001121 -406.71677649 211.92899007 C-406.71214218 206.28164038 -406.711355 200.63436872 -406.72138596 194.98702431 C-406.80473618 140.68755108 -406.80473618 140.68755108 -400.5625 116.5625 C-400.30573486 115.53809814 -400.04896973 114.51369629 -399.78442383 113.45825195 C-390.05274379 75.74616253 -371.47779957 41.20671734 -345.3125 12.375 C-344.79913086 11.80136719 -344.28576172 11.22773437 -343.75683594 10.63671875 C-337.94011892 4.13928376 -332.05484963 -2.07173267 -325.3125 -7.625 C-324.08080078 -8.70587891 -324.08080078 -8.70587891 -322.82421875 -9.80859375 C-309.28119801 -21.51590767 -294.21173336 -31.42328861 -278.3125 -39.625 C-277.47267578 -40.06054199 -276.63285156 -40.49608398 -275.76757812 -40.94482422 C-185.9954625 -86.97478372 -77.74040662 -68.80615323 0 0 Z " fill="#023B4B" transform="translate(2875.3125,701.625)"/>
<path d="M0 0 C11.3660556 10.60831856 18.83103519 26.0587734 20.01782227 41.55615234 C20.70098108 61.64556423 17.98572728 78.7948407 4.375 94.3125 C2.87207203 95.85103033 1.35189416 97.37295683 -0.1875 98.875 C-1.16396484 99.91720703 -1.16396484 99.91720703 -2.16015625 100.98046875 C-15.91616581 114.68346864 -35.08040827 117.76327427 -53.6394043 118.47363281 C-88.29168448 119.93878969 -118.277046 135.73992298 -141.875 160.6875 C-162.4616444 184.28410504 -171.68165868 214.02012771 -171.58813477 244.90087891 C-171.59389408 246.6440528 -171.60098364 248.38722271 -171.60928345 250.13038635 C-171.62426522 253.84990764 -171.63018228 257.56928661 -171.62875557 261.28883743 C-171.626702 267.1833094 -171.64641988 273.07759328 -171.66893005 278.97201538 C-171.70970736 290.42003803 -171.7284624 301.86804517 -171.74510193 313.31612396 C-171.76752952 327.89465055 -171.80121909 342.47313272 -171.85230106 357.05158746 C-171.87209046 362.8984038 -171.88179373 368.74512026 -171.88325322 374.59196877 C-171.88602364 378.24078103 -171.89689668 381.88953893 -171.90976334 385.53832817 C-171.91400475 387.21596581 -171.91492927 388.89361604 -171.91208839 390.57125664 C-171.88230482 410.45593087 -174.41783502 427.25413821 -186.1875 443.875 C-187.2703125 445.421875 -187.2703125 445.421875 -188.375 447 C-198.48304815 458.42936163 -214.3915418 466.92743657 -229.62060547 468.05517578 C-250.56482951 469.11665417 -269.04679323 465.04732789 -285.1875 450.875 C-286.20263672 450.00101563 -286.20263672 450.00101563 -287.23828125 449.109375 C-301.43716461 435.98574689 -306.52154845 418.64101415 -307.36563492 399.9252491 C-307.45416613 395.717031 -307.43579087 391.50985861 -307.41455078 387.30102539 C-307.41398494 385.70277412 -307.4143066 384.10452233 -307.41543579 382.50627136 C-307.41600355 378.21799323 -307.404344 373.92982973 -307.39028788 369.64157796 C-307.37768306 365.14130201 -307.3766024 360.64102269 -307.37423706 356.14073181 C-307.36805069 347.64137419 -307.35167883 339.14206876 -307.33153808 330.64273399 C-307.30908998 320.95696714 -307.29816336 311.27119763 -307.28814721 301.58541119 C-307.2673097 281.6819118 -307.23218972 261.7784592 -307.1875 241.875 C-307.77885742 241.58455811 -308.37021484 241.29411621 -308.97949219 240.99487305 C-311.51460002 239.70909909 -313.95692339 238.28153365 -316.41430664 236.85424805 C-339.41021136 223.59282308 -361.67402973 217.59307684 -388.37255859 217.55615234 C-389.94111127 217.54682806 -391.50965909 217.53665579 -393.07820129 217.52571106 C-397.29003765 217.49867835 -401.50184109 217.48334209 -405.71374083 217.47028303 C-410.13265428 217.45453399 -414.55150162 217.42778206 -418.97036743 217.4022522 C-427.31741957 217.35567106 -435.66448444 217.31882769 -444.01159918 217.28557932 C-453.52327131 217.24721092 -463.03487669 217.19783987 -472.54649234 217.14759517 C-492.0934515 217.04458306 -511.64043924 216.95667573 -531.1875 216.875 C-531.1875 202.685 -531.1875 188.495 -531.1875 173.875 C-526.58111572 173.85518066 -521.97473145 173.83536133 -517.22875977 173.81494141 C-501.96573698 173.74786976 -486.70278041 173.67032948 -471.43983555 173.58747292 C-462.19094531 173.53751737 -452.94206318 173.49107368 -443.69311523 173.453125 C-435.62440103 173.42000969 -427.55575314 173.38007332 -419.48711246 173.33220994 C-415.22150473 173.30713746 -410.95593987 173.28530135 -406.69027901 173.27165604 C-402.66096025 173.25865839 -398.63179007 173.23642126 -394.60255432 173.20761681 C-393.13744672 173.19867715 -391.6723153 173.19288346 -390.20718193 173.19078636 C-382.467308 173.17774436 -374.85150837 172.85658509 -367.16197205 171.96835327 C-366.478382 171.88953592 -365.79479196 171.81071857 -365.09048706 171.72951281 C-338.64648481 168.4003391 -316.33991427 155.66843416 -296.37182617 138.81567383 C-284.5902185 128.875 -284.5902185 128.875 -280.1875 128.875 C-279.95804688 128.06675781 -279.72859375 127.25851562 -279.4921875 126.42578125 C-277.86789294 122.00517121 -275.68357465 118.12086864 -273.3125 114.0625 C-272.82998779 113.23371338 -272.34747559 112.40492676 -271.8503418 111.55102539 C-262.28092891 95.37427066 -250.84812716 80.73240287 -238.1875 66.875 C-237.35863281 65.94171875 -236.52976562 65.0084375 -235.67578125 64.046875 C-230.78727227 58.56695375 -225.82296244 53.5712187 -220.1875 48.875 C-219.26710938 48.06675781 -218.34671875 47.25851562 -217.3984375 46.42578125 C-204.39207619 35.05321886 -190.20938103 25.38145971 -175.1875 16.875 C-174.24632324 16.33262695 -174.24632324 16.33262695 -173.28613281 15.77929688 C-128.32429528 -9.95857479 -45.32527823 -36.09898642 0 0 Z " fill="#04202D" transform="translate(1640.1875,651.125)"/>
<path d="M0 0 C2.46622611 2.1565487 4.75494868 4.39201954 7.01953125 6.7578125 C7.63957031 7.34691406 8.25960938 7.93601562 8.8984375 8.54296875 C12.9852569 12.70293033 15.63764433 17.41936829 18.26953125 22.5703125 C18.59904785 23.20976807 18.92856445 23.84922363 19.26806641 24.50805664 C24.50215457 35.23726806 25.45983297 45.62233076 25.41394043 57.3992157 C25.41883691 58.96473479 25.4250302 60.53025027 25.43239832 62.09575969 C25.44872532 66.37267003 25.44649474 70.64939516 25.44102335 74.92632568 C25.43834415 79.54886285 25.4529017 84.17135164 25.46511841 88.79386902 C25.48613786 97.84092953 25.49071523 106.8879259 25.48893052 115.93500795 C25.48762101 123.29254934 25.49143669 130.65007078 25.49885559 138.00760841 C25.50095488 140.12993345 25.50305248 142.2522585 25.50514841 144.37458354 C25.50619194 145.43105698 25.50723547 146.48753041 25.50831062 147.57601819 C25.52719932 167.54216462 25.52616714 187.50827429 25.51934129 207.47442595 C25.51376824 225.71797955 25.53458361 243.96139263 25.56770176 262.2049134 C25.60148124 280.95903679 25.61660169 299.71309294 25.61198473 318.46724731 C25.60974417 328.98751644 25.61492251 339.50765573 25.63987732 350.02789879 C25.66094561 358.98564883 25.66442784 367.94319784 25.64557773 376.9009563 C25.63645348 381.46607522 25.63517454 386.0308199 25.65593338 390.59590912 C25.674772 394.78528221 25.66999754 398.97397791 25.64738756 403.16332624 C25.64323401 404.66865682 25.64729092 406.17404066 25.6609835 407.6793147 C25.82323004 426.83985078 19.57373073 443.51666639 6.33984375 457.6328125 C-7.53241658 470.33737415 -24.90515232 477.69158018 -43.90234375 477.03125 C-60.21234613 475.58239192 -74.75732427 469.82504593 -86.98046875 458.7578125 C-87.65207031 458.17773438 -88.32367187 457.59765625 -89.015625 457 C-100.71349319 446.22624086 -107.07353425 431.35432042 -108.98046875 415.7578125 C-109.06741975 413.56929401 -109.10943172 411.37863542 -109.11189651 409.18839169 C-109.11573766 407.90119856 -109.1195788 406.61400543 -109.12353635 405.28780645 C-109.12275624 403.87171609 -109.12187748 402.45562577 -109.12091064 401.03953552 C-109.12349644 399.52554453 -109.1265102 398.01155422 -109.12991405 396.49756485 C-109.1379622 392.34462629 -109.1397724 388.19170503 -109.14051151 384.03875959 C-109.14236589 379.55663236 -109.14991518 375.07451403 -109.15664673 370.59239197 C-109.17021526 360.79465951 -109.17625252 350.99693115 -109.18065739 341.19919086 C-109.18342243 335.07807056 -109.18766028 328.95695183 -109.19216156 322.8358326 C-109.20435252 305.87873528 -109.21465203 288.92163922 -109.21803665 271.96453762 C-109.21825622 270.8797244 -109.21847578 269.79491117 -109.218702 268.67722482 C-109.21892028 267.58985709 -109.21913856 266.50248936 -109.21936345 265.38217109 C-109.21980691 263.17885299 -109.22025348 260.9755349 -109.22070312 258.7722168 C-109.22092455 257.67930142 -109.22114598 256.58638604 -109.22137412 255.46035201 C-109.22532061 237.75841995 -109.24277087 220.05652909 -109.26606265 202.35461294 C-109.28979857 184.16790251 -109.30223953 165.98121274 -109.30340457 147.79448658 C-109.30432009 137.58836024 -109.31004146 127.38228759 -109.32822418 117.17617607 C-109.34365545 108.4840164 -109.34872781 99.79192701 -109.34048608 91.09975623 C-109.33659023 86.66866216 -109.3374569 82.23770949 -109.35154343 77.806633 C-109.36434645 73.74195191 -109.36302919 69.67751754 -109.35095271 65.61283649 C-109.34900673 64.15048899 -109.35202273 62.68812363 -109.36079708 61.22580116 C-109.48559931 39.00077487 -103.34411137 21.8676117 -88.23046875 5.5078125 C-64.3591313 -17.22904554 -26.21701427 -19.72289147 0 0 Z " fill="#032735" transform="translate(1829.98046875,648.2421875)"/>
<path d="M0 0 C17.10991018 13.25451068 28.8274815 30.73233956 32 52.375 C33.81503969 75.24450008 27.71846909 95.05669139 12.9375 112.5625 C-9.78901522 139.83431827 -19.74729301 176.08916459 -19.89282227 211.01196289 C-19.90241782 212.48125473 -19.91242885 213.9505439 -19.92282104 215.41983032 C-19.94969459 219.38402982 -19.97079837 223.348241 -19.99082303 227.31248021 C-20.01279175 231.46448055 -20.04012684 235.61644558 -20.06687927 239.76841736 C-20.11665974 247.6198182 -20.16165249 255.47123879 -20.20490164 263.32267803 C-20.25439972 272.26590799 -20.30927096 281.20910249 -20.36458123 290.15229809 C-20.47817625 308.53900052 -20.58435449 326.92573578 -20.6875 345.3125 C-35.2075 345.3125 -49.7275 345.3125 -64.6875 345.3125 C-64.70208252 340.80223145 -64.71666504 336.29196289 -64.73168945 331.64501953 C-64.7821713 316.69331244 -64.84864303 301.74170741 -64.92321491 286.79010201 C-64.96801332 277.73068538 -65.0074639 268.67130666 -65.03393555 259.61181641 C-65.05704578 251.70750553 -65.09058664 243.80331626 -65.13620156 235.89910209 C-65.15995983 231.72119072 -65.17880165 227.54339847 -65.18511391 223.3654213 C-65.21901375 203.51038206 -65.38578385 184.33599622 -71.4375 165.1875 C-71.69354004 164.35968018 -71.94958008 163.53186035 -72.21337891 162.67895508 C-74.78349722 154.61305937 -77.97855325 146.91633014 -81.6875 139.3125 C-81.99413574 138.68005371 -82.30077148 138.04760742 -82.61669922 137.39599609 C-87.95048162 126.54870301 -94.60909624 116.96848818 -101.92578125 107.37890625 C-106.49594369 101.31117645 -110.04785278 95.45175939 -112.6875 88.3125 C-113.08066406 87.2503125 -113.47382812 86.188125 -113.87890625 85.09375 C-120.28932698 64.9020415 -117.54040408 43.78922612 -108.10131836 25.09790039 C-104.32718522 18.14887927 -99.34292007 12.77177833 -93.6875 7.3125 C-92.98109375 6.57515625 -92.2746875 5.8378125 -91.546875 5.078125 C-82.61959327 -3.71286235 -69.88798564 -9.31409363 -57.6875 -11.6875 C-56.77226563 -11.86925781 -55.85703125 -12.05101562 -54.9140625 -12.23828125 C-35.66613537 -14.9180774 -16.09602511 -11.15747195 0 0 Z " fill="#DA3600" transform="translate(915.6875,264.6875)"/>
<path d="M0 0 C14.52 0 29.04 0 44 0 C44.01458252 4.40891602 44.02916504 8.81783203 44.04418945 13.36035156 C44.09470902 27.98874332 44.16118772 42.61703118 44.23571491 57.24531937 C44.28048073 66.10738172 44.31993839 74.9694056 44.34643555 83.83154297 C44.36957263 91.56520931 44.40314215 99.29875191 44.44870156 107.03231978 C44.47242447 111.11863327 44.491289 115.20482584 44.49761391 119.29120636 C44.53344573 139.77995224 44.74059783 159.94812062 50.75 179.75 C51.00676514 180.6164917 51.26353027 181.4829834 51.52807617 182.37573242 C57.3580389 201.41910843 66.8353907 218.30576313 79 234 C90.90570539 249.85452973 98.73985765 267.78601748 97 288 C96.87818359 289.56041016 96.87818359 289.56041016 96.75390625 291.15234375 C95.15731339 305.78503503 89.91898346 318.31245192 81 330 C80.45730469 330.72574219 79.91460938 331.45148438 79.35546875 332.19921875 C67.09888849 347.3782926 48.03747709 355.76155085 29 358 C9.57714412 359.22571421 -8.73132625 354.24017648 -24 342 C-25.24716797 341.01580078 -25.24716797 341.01580078 -26.51953125 340.01171875 C-40.07330996 328.62321344 -49.82747018 311.64956043 -52 294 C-53.75645623 269.86181699 -47.93252829 250.03370412 -32.43261719 231.43139648 C-27.61988659 225.64712828 -23.66265952 219.58050148 -20 213 C-19.6704834 212.41202637 -19.3409668 211.82405273 -19.00146484 211.21826172 C-14.66914298 203.38030208 -11.17797412 195.33766628 -8.25 186.875 C-7.98050537 186.12025391 -7.71101074 185.36550781 -7.43334961 184.58789062 C-0.55235506 163.68424718 -0.38713987 142.41134577 -0.39249516 120.67225313 C-0.38932075 116.41484803 -0.36361079 112.15757326 -0.34051514 107.90023804 C-0.30029254 99.87571403 -0.27969482 91.85127056 -0.26654124 83.82666147 C-0.25055539 74.6751053 -0.21209258 65.52368401 -0.17194796 56.37220693 C-0.0900119 37.58149007 -0.03859722 18.7908593 0 0 Z " fill="#DA3600" transform="translate(851,1083)"/>
<path d="M0 0 C3.92505362 3.04881841 7.43559852 6.33398176 10.8671875 9.921875 C30.40266423 29.8879935 59.29514658 37.76870578 86.45170593 38.14259338 C89.29811238 38.16653386 92.1444856 38.17861366 94.9909668 38.18969727 C96.56892644 38.19929632 98.14688362 38.20930752 99.72483826 38.21969604 C103.97610151 38.24653187 108.22737562 38.26765567 112.4786756 38.28769803 C116.93362345 38.30969048 121.38853866 38.33701378 125.84346008 38.36375427 C134.26499284 38.41350308 142.68654389 38.45850736 151.10811216 38.50177664 C160.70191851 38.55130206 170.29569207 38.60616302 179.88946664 38.66145623 C199.61117774 38.77500254 219.33291925 38.8811961 239.0546875 38.984375 C239.0546875 53.174375 239.0546875 67.364375 239.0546875 81.984375 C231.74401123 82.00624878 231.74401123 82.00624878 224.28564453 82.02856445 C208.13652414 82.07902568 191.98749844 82.14549356 175.83847237 82.22008991 C166.05264493 82.26490615 156.26685275 82.30435284 146.48095703 82.33081055 C137.94379884 82.3539061 129.40675351 82.38743123 120.86968505 82.43307656 C116.35642677 82.45685419 111.84327919 82.47568355 107.32995987 82.48198891 C103.0666647 82.48811065 98.80365222 82.50836002 94.54046249 82.53865051 C92.99031297 82.54731883 91.44012633 82.55117715 89.88995361 82.54938316 C61.74985246 82.5271344 32.64344045 89.94134691 11.92578125 110.05078125 C10.64631619 111.37160275 9.36765747 112.69320587 8.08984375 114.015625 C-7.2197073 128.82563216 -26.93027778 135.3855451 -47.90234375 135.19921875 C-69.83580715 134.34810098 -87.96960023 123.91518996 -102.6328125 108.171875 C-116.68620527 91.37393729 -120.34580347 71.30078643 -118.9453125 49.984375 C-116.44524267 29.63586852 -104.83041365 12.51105198 -88.9453125 -0.015625 C-85.72049373 -2.25564943 -82.42004683 -4.19045827 -78.9453125 -6.015625 C-78.09324219 -6.46808594 -77.24117188 -6.92054688 -76.36328125 -7.38671875 C-51.39469754 -19.7065031 -22.46554538 -15.37429896 0 0 Z " fill="#041F2C" transform="translate(397.9453125,786.015625)"/>
<path d="M0 0 C14.61096858 11.38225105 25.64738384 28.28754067 28.5390625 46.7578125 C30.63687689 67.34747229 26.30580321 86.6908988 13.1953125 103.1171875 C0.36096669 118.17986714 -16.17007983 128.04282492 -36.14453125 129.86328125 C-58.39122723 131.32208099 -76.71934629 124.33376705 -93.421875 109.89453125 C-107.151652 97.03439463 -114.00010437 79.03147874 -115.390625 60.6015625 C-115.85586228 39.665885 -107.47095063 20.91592465 -93.14453125 5.86328125 C-66.3755486 -17.68453752 -29.34838237 -19.94231696 0 0 Z " fill="#032735" transform="translate(1832.14453125,466.13671875)"/>
</svg>
